<svg xmlns="http://www.w3.org/2000/svg" viewBox="0 0 64 64"><g id="_15-tree" data-name="15-tree"><path d="M53,20a5.945,5.945,0,0,1-.5,2.39,8,8,0,0,1,2.83,9.82A9.995,9.995,0,1,1,38.2,40.99c-.07,0-.13.01-.2.01a5.919,5.919,0,0,1-3-.82c-.08-.04-.15-.08-.23-.13A7.841,7.841,0,0,1,31,41a8.1,8.1,0,0,1-1.4-.13A5.989,5.989,0,0,1,26,48.66a4.594,4.594,0,0,1-.88.24A6,6,0,0,1,18,43v-.08a7.879,7.879,0,0,1-4.99,1.01,1.333,1.333,0,0,1-.28-.03A8,8,0,0,1,9.12,29.67a1.975,1.975,0,0,0,.27-2.83,6,6,0,0,1,3.35-9.71A6.39,6.39,0,0,1,13.95,17,2.049,2.049,0,0,0,16,14.94a5.71,5.71,0,0,1,.14-1.22,6,6,0,0,1,4.58-4.58A5.71,5.71,0,0,1,21.94,9,2.051,2.051,0,0,0,24,7V6.95a6.39,6.39,0,0,1,.13-1.21,6,6,0,0,1,11.24-1.4,2.081,2.081,0,0,0,2.47.96A7.72,7.72,0,0,1,40,5a8,8,0,0,1,8,8,7.735,7.735,0,0,1-.08,1.08A5.987,5.987,0,0,1,53,20Z" style="fill:#008f57"/><path d="M39,61.04v.01A1.946,1.946,0,0,1,37.05,63H35.81a1.961,1.961,0,0,1-1.38-.57L32,60l-2.43,2.43a1.961,1.961,0,0,1-1.38.57H26.95A1.946,1.946,0,0,1,25,61.05v-.01a1.954,1.954,0,0,1,.87-1.62L29,57V46.32a5.972,5.972,0,0,0,.6-5.45A8.1,8.1,0,0,0,31,41a7.841,7.841,0,0,0,3.77-.95c.08.05.15.09.23.13V57l3.13,2.42A1.954,1.954,0,0,1,39,61.04Z" style="fill:#af7a58"/><path d="M38.2,40.99a10.012,10.012,0,0,0,7.84,7.81L46,49s-1,2-8,2V41C38.07,41,38.13,40.99,38.2,40.99Z" style="fill:#004a2d"/><path d="M26,48.66V51c0,.55-1.34,1-3,1s-3-1-3-2c0,1-2.34,2-4,2-2,0-3-1.79-3-4a2.151,2.151,0,0,1-2-2,1.993,1.993,0,0,1,2-2l.01-.07A7.879,7.879,0,0,0,18,42.92V43a6,6,0,0,0,7.12,5.9A4.594,4.594,0,0,0,26,48.66Z" style="fill:#004a2d"/><path d="M29,46.32V57l-4.5,2.75a2.428,2.428,0,0,1-1.06.25h-.05a2.385,2.385,0,0,1-.89-4.6l2.24-.9A2,2,0,0,0,26,52.65V48.66A5.941,5.941,0,0,0,29,46.32Z" style="fill:#a56645"/><path d="M43,57.61A2.39,2.39,0,0,1,40.61,60h-.05a2.428,2.428,0,0,1-1.06-.25L35,57V40.18A5.919,5.919,0,0,0,38,41V52.65a2,2,0,0,0,1.26,1.85l2.24.9A2.376,2.376,0,0,1,43,57.61Z" style="fill:#a56645"/><path d="M29,50.79V57l-3.13,2.42A1.954,1.954,0,0,0,25,61.04v.01A1.946,1.946,0,0,0,26.95,63h1.24a1.961,1.961,0,0,0,1.38-.57L32,60V46.628A6.18,6.18,0,0,1,29,50.79Z" style="fill:#a56645"/><path d="M27,51.615V52.95A4,4,0,0,1,25.336,56.2l-2.889,2.079a.994.994,0,0,1-1.431-.772c0,.036-.016.069-.016.106A2.39,2.39,0,0,0,23.39,60h.05a2.428,2.428,0,0,0,1.06-.25L29,57V50.79A8.544,8.544,0,0,1,27,51.615Z" style="fill:#6f3529"/><path d="M41.553,58.276,38.664,56.2A4,4,0,0,1,37,52.95V44.214a14.521,14.521,0,0,1-2-.292V57l4.5,2.75a2.428,2.428,0,0,0,1.06.25h.05A2.39,2.39,0,0,0,43,57.61c0-.037-.014-.07-.016-.106A.994.994,0,0,1,41.553,58.276Z" style="fill:#6f3529"/><path d="M34.77,40.05A7.841,7.841,0,0,1,31,41a8.1,8.1,0,0,1-1.4-.13,5.972,5.972,0,0,1-.6,5.45v4.47a6.18,6.18,0,0,0,3-4.162A8.852,8.852,0,0,0,32,43a18.425,18.425,0,0,0,3,.922V40.18C34.92,40.14,34.85,40.1,34.77,40.05Z" style="fill:#7c4026"/><path d="M27,48.194a5.652,5.652,0,0,1-1,.466v3.188c.353-.066.685-.144,1-.233a8.544,8.544,0,0,0,2-.825V46.32A6.044,6.044,0,0,1,27,48.194Z" style="fill:#5d241d"/><path d="M37,40.9a5.981,5.981,0,0,1-2-.724v3.742a14.521,14.521,0,0,0,2,.292c.364.026.7.037,1,.033V41A5.784,5.784,0,0,1,37,40.9Z" style="fill:#5d241d"/><path d="M37.9,34.6c-.234.875-1.048,2.4-3.9,2.4H28s1,6-4,6-5-6-5-6-2.769,5.308-6,1c-1.808-2.411-1.072-5.541-.2-7.653A17.672,17.672,0,0,1,9.616,29.09a1.9,1.9,0,0,1-.5.58A8,8,0,0,0,12.73,43.9a1.333,1.333,0,0,0,.28.03A7.879,7.879,0,0,0,18,42.92V43a6,6,0,0,0,7.12,5.9,4.594,4.594,0,0,0,.88-.24,5.984,5.984,0,0,0,3.6-7.79A8.1,8.1,0,0,0,31,41a7.841,7.841,0,0,0,3.77-.95c.08.05.15.09.23.13A5.919,5.919,0,0,0,38,41h.021A20.21,20.21,0,0,1,37.9,34.6Z" style="fill:#00613b"/><path d="M55.41,32H55s0,8-6,8-11-6-11-6a2.684,2.684,0,0,1-.1.6,20.21,20.21,0,0,0,.118,6.4c.061,0,.116-.009.179-.009a10.012,10.012,0,0,0,7.84,7.81,9.429,9.429,0,0,0,1.526.184c.12,0,.233.013.355.013a10.442,10.442,0,0,0,1.739-.127,9.989,9.989,0,0,0,5.67-16.66C55.36,32.142,55.382,32.069,55.41,32Z" style="fill:#007145"/><path d="M26.986,12.185c0-.064.014-.119.014-.185,0,.066-.012.121-.014.185A5.975,5.975,0,0,0,30,13c8-3,11,4,11,4,0,3.87,2.13,6,6,6,3.32,0,6-1.34,6-3a5.987,5.987,0,0,0-5.08-5.92A7.735,7.735,0,0,0,48,13a8,8,0,0,0-8-8,7.72,7.72,0,0,0-2.16.3,2.081,2.081,0,0,1-2.47-.96,6,6,0,0,0-11.24,1.4A6.39,6.39,0,0,0,24,6.95V7A5.985,5.985,0,0,0,26.986,12.185Z" style="fill:#00c477"/><path d="M26.986,12.185A5.985,5.985,0,0,1,24,7a2.051,2.051,0,0,1-2.06,2,5.71,5.71,0,0,0-1.22.14,6,6,0,0,0-4.58,4.58A5.71,5.71,0,0,0,16,14.94,2.049,2.049,0,0,1,13.95,17a6.39,6.39,0,0,0-1.21.13,6,6,0,0,0-3.35,9.71,2,2,0,0,1,.226,2.25A17.672,17.672,0,0,0,12.8,30.347,15.411,15.411,0,0,0,17,31s6,0,6-5c0,0,1-7-3-8C20,18,26.836,17.99,26.986,12.185Z" style="fill:#009e60"/></g></svg>